<svg xmlns="http://www.w3.org/2000/svg" viewBox="0 0 400 720" font-family="'Segoe UI', system-ui, sans-serif">
  <!-- Background -->
  <rect width="400" height="720" fill="#fafafa" rx="8"/>
  
  <!-- Title -->
  <text x="200" y="28" text-anchor="middle" font-size="14" font-weight="600" fill="#1a1a1a">Numbers up to 600</text>
  
  <!-- Legend -->
  <circle cx="60" cy="52" r="5" fill="#2d8a4e"/>
  <text x="72" y="56" font-size="11" fill="#555">Prime</text>
  <circle cx="140" cy="52" r="5" fill="#e03030" opacity="0.7"/>
  <text x="152" y="56" font-size="11" fill="#555">Composite</text>
  <circle cx="250" cy="52" r="5" fill="#e6a817" stroke="#b8860b" stroke-width="1.5"/>
  <text x="262" y="56" font-size="11" fill="#555">Pseudoprime</text>
  
  <!-- Vertical number line -->
  <!-- y runs from 80 (n=0) to 680 (n=600), so y = 80 + n -->
  <line x1="170" y1="80" x2="170" y2="680" stroke="#999" stroke-width="1.2"/>
  
  <!-- Tick marks every 100 -->
  <line x1="164" y1="80" x2="176" y2="80" stroke="#999" stroke-width="1"/>
  <text x="158" y="84" text-anchor="end" font-size="10" fill="#888">0</text>
  
  <line x1="164" y1="180" x2="176" y2="180" stroke="#999" stroke-width="1"/>
  <text x="158" y="184" text-anchor="end" font-size="10" fill="#888">100</text>
  
  <line x1="164" y1="280" x2="176" y2="280" stroke="#999" stroke-width="1"/>
  <text x="158" y="284" text-anchor="end" font-size="10" fill="#888">200</text>
  
  <line x1="164" y1="380" x2="176" y2="380" stroke="#999" stroke-width="1"/>
  <text x="158" y="384" text-anchor="end" font-size="10" fill="#888">300</text>
  
  <line x1="164" y1="480" x2="176" y2="480" stroke="#999" stroke-width="1"/>
  <text x="158" y="484" text-anchor="end" font-size="10" fill="#888">400</text>
  
  <line x1="164" y1="580" x2="176" y2="580" stroke="#999" stroke-width="1"/>
  <text x="158" y="584" text-anchor="end" font-size="10" fill="#888">500</text>
  
  <line x1="164" y1="680" x2="176" y2="680" stroke="#999" stroke-width="1"/>
  <text x="158" y="684" text-anchor="end" font-size="10" fill="#888">600</text>
  
  <!-- === PRIMES (green dots, LEFT of line at x=155) === -->
  <!-- y = 80 + n -->
  <circle cx="155" cy="82" r="2.2" fill="#2d8a4e"/><!-- 2 -->
  <circle cx="155" cy="83" r="2.2" fill="#2d8a4e"/><!-- 3 -->
  <circle cx="155" cy="85" r="2.2" fill="#2d8a4e"/><!-- 5 -->
  <circle cx="155" cy="87" r="2.2" fill="#2d8a4e"/><!-- 7 -->
  <circle cx="155" cy="91" r="2.2" fill="#2d8a4e"/><!-- 11 -->
  <circle cx="155" cy="93" r="2.2" fill="#2d8a4e"/><!-- 13 -->
  <circle cx="155" cy="97" r="2.2" fill="#2d8a4e"/><!-- 17 -->
  <circle cx="155" cy="99" r="2.2" fill="#2d8a4e"/><!-- 19 -->
  <circle cx="155" cy="103" r="2.2" fill="#2d8a4e"/><!-- 23 -->
  <circle cx="155" cy="109" r="2.2" fill="#2d8a4e"/><!-- 29 -->
  <circle cx="155" cy="111" r="2.2" fill="#2d8a4e"/><!-- 31 -->
  <circle cx="155" cy="117" r="2.2" fill="#2d8a4e"/><!-- 37 -->
  <circle cx="155" cy="121" r="2.2" fill="#2d8a4e"/><!-- 41 -->
  <circle cx="155" cy="123" r="2.2" fill="#2d8a4e"/><!-- 43 -->
  <circle cx="155" cy="127" r="2.2" fill="#2d8a4e"/><!-- 47 -->
  <circle cx="155" cy="133" r="2.2" fill="#2d8a4e"/><!-- 53 -->
  <circle cx="155" cy="139" r="2.2" fill="#2d8a4e"/><!-- 59 -->
  <circle cx="155" cy="141" r="2.2" fill="#2d8a4e"/><!-- 61 -->
  <circle cx="155" cy="147" r="2.2" fill="#2d8a4e"/><!-- 67 -->
  <circle cx="155" cy="151" r="2.2" fill="#2d8a4e"/><!-- 71 -->
  <circle cx="155" cy="153" r="2.2" fill="#2d8a4e"/><!-- 73 -->
  <circle cx="155" cy="159" r="2.2" fill="#2d8a4e"/><!-- 79 -->
  <circle cx="155" cy="163" r="2.2" fill="#2d8a4e"/><!-- 83 -->
  <circle cx="155" cy="169" r="2.2" fill="#2d8a4e"/><!-- 89 -->
  <circle cx="155" cy="177" r="2.2" fill="#2d8a4e"/><!-- 97 -->
  <!-- 100-200 -->
  <circle cx="155" cy="181" r="2.2" fill="#2d8a4e"/><!-- 101 -->
  <circle cx="155" cy="183" r="2.2" fill="#2d8a4e"/><!-- 103 -->
  <circle cx="155" cy="187" r="2.2" fill="#2d8a4e"/><!-- 107 -->
  <circle cx="155" cy="189" r="2.2" fill="#2d8a4e"/><!-- 109 -->
  <circle cx="155" cy="193" r="2.2" fill="#2d8a4e"/><!-- 113 -->
  <circle cx="155" cy="207" r="2.2" fill="#2d8a4e"/><!-- 127 -->
  <circle cx="155" cy="211" r="2.2" fill="#2d8a4e"/><!-- 131 -->
  <circle cx="155" cy="217" r="2.2" fill="#2d8a4e"/><!-- 137 -->
  <circle cx="155" cy="219" r="2.2" fill="#2d8a4e"/><!-- 139 -->
  <circle cx="155" cy="229" r="2.2" fill="#2d8a4e"/><!-- 149 -->
  <circle cx="155" cy="231" r="2.2" fill="#2d8a4e"/><!-- 151 -->
  <circle cx="155" cy="237" r="2.2" fill="#2d8a4e"/><!-- 157 -->
  <circle cx="155" cy="243" r="2.2" fill="#2d8a4e"/><!-- 163 -->
  <circle cx="155" cy="247" r="2.2" fill="#2d8a4e"/><!-- 167 -->
  <circle cx="155" cy="253" r="2.2" fill="#2d8a4e"/><!-- 173 -->
  <circle cx="155" cy="259" r="2.2" fill="#2d8a4e"/><!-- 179 -->
  <circle cx="155" cy="261" r="2.2" fill="#2d8a4e"/><!-- 181 -->
  <circle cx="155" cy="271" r="2.2" fill="#2d8a4e"/><!-- 191 -->
  <circle cx="155" cy="273" r="2.2" fill="#2d8a4e"/><!-- 193 -->
  <circle cx="155" cy="277" r="2.2" fill="#2d8a4e"/><!-- 197 -->
  <circle cx="155" cy="279" r="2.2" fill="#2d8a4e"/><!-- 199 -->
  <!-- 200-400 -->
  <circle cx="155" cy="291" r="2.2" fill="#2d8a4e"/><!-- 211 -->
  <circle cx="155" cy="303" r="2.2" fill="#2d8a4e"/><!-- 223 -->
  <circle cx="155" cy="307" r="2.2" fill="#2d8a4e"/><!-- 227 -->
  <circle cx="155" cy="309" r="2.2" fill="#2d8a4e"/><!-- 229 -->
  <circle cx="155" cy="313" r="2.2" fill="#2d8a4e"/><!-- 233 -->
  <circle cx="155" cy="319" r="2.2" fill="#2d8a4e"/><!-- 239 -->
  <circle cx="155" cy="321" r="2.2" fill="#2d8a4e"/><!-- 241 -->
  <circle cx="155" cy="331" r="2.2" fill="#2d8a4e"/><!-- 251 -->
  <circle cx="155" cy="337" r="2.2" fill="#2d8a4e"/><!-- 257 -->
  <circle cx="155" cy="343" r="2.2" fill="#2d8a4e"/><!-- 263 -->
  <circle cx="155" cy="349" r="2.2" fill="#2d8a4e"/><!-- 269 -->
  <circle cx="155" cy="351" r="2.2" fill="#2d8a4e"/><!-- 271 -->
  <circle cx="155" cy="357" r="2.2" fill="#2d8a4e"/><!-- 277 -->
  <circle cx="155" cy="361" r="2.2" fill="#2d8a4e"/><!-- 281 -->
  <circle cx="155" cy="363" r="2.2" fill="#2d8a4e"/><!-- 283 -->
  <circle cx="155" cy="373" r="2.2" fill="#2d8a4e"/><!-- 293 -->
  <circle cx="155" cy="387" r="2.2" fill="#2d8a4e"/><!-- 307 -->
  <circle cx="155" cy="391" r="2.2" fill="#2d8a4e"/><!-- 311 -->
  <circle cx="155" cy="393" r="2.2" fill="#2d8a4e"/><!-- 313 -->
  <circle cx="155" cy="397" r="2.2" fill="#2d8a4e"/><!-- 317 -->
  <circle cx="155" cy="411" r="2.2" fill="#2d8a4e"/><!-- 331 -->
  <circle cx="155" cy="417" r="2.2" fill="#2d8a4e"/><!-- 337 -->
  <circle cx="155" cy="427" r="2.2" fill="#2d8a4e"/><!-- 347 -->
  <circle cx="155" cy="429" r="2.2" fill="#2d8a4e"/><!-- 349 -->
  <circle cx="155" cy="433" r="2.2" fill="#2d8a4e"/><!-- 353 -->
  <circle cx="155" cy="439" r="2.2" fill="#2d8a4e"/><!-- 359 -->
  <circle cx="155" cy="447" r="2.2" fill="#2d8a4e"/><!-- 367 -->
  <circle cx="155" cy="453" r="2.2" fill="#2d8a4e"/><!-- 373 -->
  <circle cx="155" cy="459" r="2.2" fill="#2d8a4e"/><!-- 379 -->
  <circle cx="155" cy="463" r="2.2" fill="#2d8a4e"/><!-- 383 -->
  <circle cx="155" cy="469" r="2.2" fill="#2d8a4e"/><!-- 389 -->
  <circle cx="155" cy="477" r="2.2" fill="#2d8a4e"/><!-- 397 -->
  <!-- 400-600 -->
  <circle cx="155" cy="481" r="2.2" fill="#2d8a4e"/><!-- 401 -->
  <circle cx="155" cy="489" r="2.2" fill="#2d8a4e"/><!-- 409 -->
  <circle cx="155" cy="499" r="2.2" fill="#2d8a4e"/><!-- 419 -->
  <circle cx="155" cy="511" r="2.2" fill="#2d8a4e"/><!-- 431 -->
  <circle cx="155" cy="519" r="2.2" fill="#2d8a4e"/><!-- 439 -->
  <circle cx="155" cy="529" r="2.2" fill="#2d8a4e"/><!-- 449 -->
  <circle cx="155" cy="537" r="2.2" fill="#2d8a4e"/><!-- 457 -->
  <circle cx="155" cy="541" r="2.2" fill="#2d8a4e"/><!-- 461 -->
  <circle cx="155" cy="547" r="2.2" fill="#2d8a4e"/><!-- 467 -->
  <circle cx="155" cy="559" r="2.2" fill="#2d8a4e"/><!-- 479 -->
  <circle cx="155" cy="567" r="2.2" fill="#2d8a4e"/><!-- 487 -->
  <circle cx="155" cy="579" r="2.2" fill="#2d8a4e"/><!-- 499 -->
  <circle cx="155" cy="583" r="2.2" fill="#2d8a4e"/><!-- 503 -->
  <circle cx="155" cy="589" r="2.2" fill="#2d8a4e"/><!-- 509 -->
  <circle cx="155" cy="601" r="2.2" fill="#2d8a4e"/><!-- 521 -->
  <circle cx="155" cy="621" r="2.2" fill="#2d8a4e"/><!-- 541 -->
  <circle cx="155" cy="627" r="2.2" fill="#2d8a4e"/><!-- 547 -->
  <circle cx="155" cy="637" r="2.2" fill="#2d8a4e"/><!-- 557 -->
  <circle cx="155" cy="643" r="2.2" fill="#2d8a4e"/><!-- 563 -->
  <circle cx="155" cy="651" r="2.2" fill="#2d8a4e"/><!-- 571 -->
  <circle cx="155" cy="657" r="2.2" fill="#2d8a4e"/><!-- 577 -->
  <circle cx="155" cy="667" r="2.2" fill="#2d8a4e"/><!-- 587 -->
  <circle cx="155" cy="673" r="2.2" fill="#2d8a4e"/><!-- 593 -->
  
  <!-- === COMPOSITES (faded red dots, RIGHT of line at x=185) === -->
  <!-- Sparse representative sample -->
  <circle cx="185" cy="84" r="1.6" fill="#e03030" opacity="0.55"/><!-- 4 -->
  <circle cx="185" cy="86" r="1.6" fill="#e03030" opacity="0.55"/><!-- 6 -->
  <circle cx="185" cy="89" r="1.6" fill="#e03030" opacity="0.55"/><!-- 9 -->
  <circle cx="185" cy="95" r="1.6" fill="#e03030" opacity="0.55"/><!-- 15 -->
  <circle cx="185" cy="101" r="1.6" fill="#e03030" opacity="0.55"/><!-- 21 -->
  <circle cx="185" cy="105" r="1.6" fill="#e03030" opacity="0.55"/><!-- 25 -->
  <circle cx="185" cy="115" r="1.6" fill="#e03030" opacity="0.55"/><!-- 35 -->
  <circle cx="185" cy="129" r="1.6" fill="#e03030" opacity="0.55"/><!-- 49 -->
  <circle cx="185" cy="145" r="1.6" fill="#e03030" opacity="0.55"/><!-- 65 -->
  <circle cx="185" cy="161" r="1.6" fill="#e03030" opacity="0.55"/><!-- 81 -->
  <circle cx="185" cy="179" r="1.6" fill="#e03030" opacity="0.55"/><!-- 99 -->
  <circle cx="185" cy="201" r="1.6" fill="#e03030" opacity="0.55"/><!-- 121 -->
  <circle cx="185" cy="223" r="1.6" fill="#e03030" opacity="0.55"/><!-- 143 -->
  <circle cx="185" cy="245" r="1.6" fill="#e03030" opacity="0.55"/><!-- 165 -->
  <circle cx="185" cy="267" r="1.6" fill="#e03030" opacity="0.55"/><!-- 187 -->
  <circle cx="185" cy="289" r="1.6" fill="#e03030" opacity="0.55"/><!-- 209 -->
  <circle cx="185" cy="311" r="1.6" fill="#e03030" opacity="0.55"/><!-- 231 -->
  <circle cx="185" cy="333" r="1.6" fill="#e03030" opacity="0.55"/><!-- 253 -->
  <circle cx="185" cy="355" r="1.6" fill="#e03030" opacity="0.55"/><!-- 275 -->
  <circle cx="185" cy="377" r="1.6" fill="#e03030" opacity="0.55"/><!-- 297 -->
  <circle cx="185" cy="399" r="1.6" fill="#e03030" opacity="0.55"/><!-- 319 -->
  <circle cx="185" cy="443" r="1.6" fill="#e03030" opacity="0.55"/><!-- 363 -->
  <circle cx="185" cy="465" r="1.6" fill="#e03030" opacity="0.55"/><!-- 385 -->
  <circle cx="185" cy="487" r="1.6" fill="#e03030" opacity="0.55"/><!-- 407 -->
  <circle cx="185" cy="509" r="1.6" fill="#e03030" opacity="0.55"/><!-- 429 -->
  <circle cx="185" cy="531" r="1.6" fill="#e03030" opacity="0.55"/><!-- 451 -->
  <circle cx="185" cy="553" r="1.6" fill="#e03030" opacity="0.55"/><!-- 473 -->
  <circle cx="185" cy="575" r="1.6" fill="#e03030" opacity="0.55"/><!-- 495 -->
  <circle cx="185" cy="597" r="1.6" fill="#e03030" opacity="0.55"/><!-- 517 -->
  <circle cx="185" cy="619" r="1.6" fill="#e03030" opacity="0.55"/><!-- 539 -->
  <circle cx="185" cy="663" r="1.6" fill="#e03030" opacity="0.55"/><!-- 583 -->
  
  <!-- === PSEUDOPRIME: 341 === -->
  <!-- y = 80 + 341 = 421 -->
  <!-- Highlight band -->
  <rect x="30" y="413" width="340" height="16" rx="4" fill="#fef3c7" opacity="0.6"/>
  <!-- Dot on the line -->
  <circle cx="170" cy="421" r="5" fill="#e6a817" stroke="#b8860b" stroke-width="2"/>
  <!-- Arrow and label -->
  <line x1="178" y1="421" x2="215" y2="421" stroke="#b8860b" stroke-width="1.5"/>
  <polygon points="215,418 222,421 215,424" fill="#b8860b"/>
  <text x="228" y="418" font-size="13" font-weight="bold" fill="#8B6914">341</text>
  <text x="228" y="432" font-size="10" fill="#8B6914">11 × 31 — composite</text>
  <text x="228" y="443" font-size="10" fill="#8B6914" font-style="italic">Passes Fermat's test</text>
  
  <!-- === PSEUDOPRIME / CARMICHAEL: 561 === -->
  <!-- y = 80 + 561 = 641 -->
  <!-- Highlight band -->
  <rect x="30" y="631" width="340" height="20" rx="4" fill="#fde68a" opacity="0.5"/>
  <!-- Dot with double ring -->
  <circle cx="170" cy="641" r="5" fill="#e6a817" stroke="#b8860b" stroke-width="2"/>
  <circle cx="170" cy="641" r="9" fill="none" stroke="#b8860b" stroke-width="1" stroke-dasharray="3,2"/>
  <!-- Arrow and label -->
  <line x1="182" y1="641" x2="215" y2="641" stroke="#b8860b" stroke-width="1.5"/>
  <polygon points="215,638 222,641 215,644" fill="#b8860b"/>
  <text x="228" y="637" font-size="13" font-weight="bold" fill="#8B6914">561</text>
  <text x="228" y="651" font-size="10" fill="#8B6914">3 × 11 × 17 — Carmichael</text>
  <text x="228" y="662" font-size="10" fill="#8B6914" font-style="italic">Fools ALL bases (perfect liar)</text>
  
  <!-- Row labels along the sides -->
  <text x="145" y="74" text-anchor="end" font-size="9" fill="#2d8a4e" font-style="italic">primes ←</text>
  <text x="195" y="74" text-anchor="start" font-size="9" fill="#e03030" font-style="italic">→ composites</text>
  
  <!-- Bottom caption -->
  <text x="200" y="705" text-anchor="middle" font-size="9.5" fill="#aaa" font-style="italic">Green: genuine primes. Red: composites caught immediately.</text>
  <text x="200" y="717" text-anchor="middle" font-size="9.5" fill="#aaa" font-style="italic">Yellow: impostors that slip through the test.</text>
</svg>